<svg version="1.1" xmlns="http://www.w3.org/2000/svg" style="display: block;" viewBox="0 0 2048 547" width="1000" height="267" preserveAspectRatio="none">
<defs>
	<linearGradient id="Gradient1" gradientUnits="userSpaceOnUse" x1="250.1" y1="522.632" x2="281.96" y2="327.056">
		<stop class="stop0" offset="0" stop-opacity="1" stop-color="rgb(39,39,73)"/>
		<stop class="stop1" offset="1" stop-opacity="1" stop-color="rgb(71,63,86)"/>
	</linearGradient>
</defs>
<path transform="translate(0,0)" fill="rgb(208,220,226)" d="M 145.559 511.627 C 80.5123 476.822 31.9276 417.637 10.4632 347.056 C -8.73691 282.037 0.141372 204.54 32.6721 144.889 C 68.0346 81.1149 127.099 33.8404 197.071 13.3066 C 347.061 -30.6524 504.865 48.861 549.206 201.376 C 568.322 267.964 560.124 339.424 526.425 399.953 C 497.449 452.262 452.506 493.935 398.162 518.887 L 393.669 521.493 L 388.409 523.643 C 374.925 528.952 356.553 536.774 342.513 538.911 C 323.601 545.352 290.896 546.165 270.621 546.112 C 220.157 543.332 193.842 535.209 148.224 513.598 L 145.559 511.627 z"/>
<path transform="translate(0,0)" fill="rgb(50,46,76)" d="M 249.509 113.192 C 250.34 113.657 251.367 114.231 252.589 114.915 C 264.332 114.036 276.708 111.822 288.475 113.028 C 300.893 114.302 314.575 118.336 326.009 123.713 C 331.193 126.151 338.908 131.374 344.376 135.756 C 356.093 145.148 370.092 163.129 387.008 162.753 C 387.579 162.74 389.553 161.703 390.137 161.382 L 393.113 161.412 L 393.689 162.696 C 389.108 167.046 381.917 167.35 377.331 169.141 C 375.827 173.161 380.639 183.961 382.412 188.908 C 380.718 191.022 380.476 192.073 378.174 192.779 C 382.238 205.774 378.378 208.506 381.202 218.386 C 380.289 221.282 378.393 225.158 379.124 227.559 C 384.654 220.086 385.707 217.413 387.817 208.376 L 391.228 208.483 C 387.563 226.043 383.42 232.188 368.524 243.311 C 371.903 256.691 376.532 271.662 368.631 284.406 C 360.959 296.78 348.954 300.525 339.162 312.615 C 345.551 326.508 341.664 329.97 344.023 337.12 L 340.299 338.059 L 337.675 340.72 L 333.852 343.601 C 333.831 350.777 331.902 363.003 338.955 366.602 L 339.733 367.926 C 336.953 369.854 329.332 370.342 325.303 371.665 C 323.708 374.508 320.169 379.81 320.743 382.775 L 318.72 385.853 C 322.917 390.745 324.092 393.057 327.052 398.607 C 325.823 405.553 320.787 412.104 313.214 411.862 L 308.405 412.872 C 306.393 410.223 301.95 406.375 299.352 403.984 L 294.787 404.261 C 280.833 406.47 268.52 401.213 255.289 406.242 C 247.423 409.232 240.287 411.98 233.379 416.886 C 221.133 423.772 221.512 427.859 206.998 431.628 C 205.429 432.285 203.946 432.305 202.245 432.467 L 200.783 431.109 L 199.903 430.799 C 195.607 424.846 195.731 418.232 197.016 411.242 C 204.742 369.2 213.879 331.778 248.945 305.236 L 236.955 303.683 C 237.21 302.893 237.321 300 237.382 298.986 L 241.2 296.25 C 238.841 294.025 230.569 286.288 226.611 285.375 C 226.584 285.369 222.319 286.279 221.847 286.378 C 217.264 287.505 210.014 287.067 205.698 284.909 C 194.086 278.097 191.996 272.891 190.66 260.029 L 189.707 262.002 L 190.253 263.385 L 185.792 265.8 C 173.619 252.335 166.424 240.344 163.187 222.367 C 165.657 215.827 165.286 208.79 165.872 201.58 C 166.381 186.158 177.722 164.57 189.906 155.087 C 192.503 153.983 198.789 148.806 201.337 146.824 C 198.822 146.509 196.31 146.172 193.8 145.813 C 189.501 145.187 186.605 145.065 183.999 141.566 L 185.5 140.007 C 194.273 137.055 197.939 137.365 206.927 137.903 C 208.83 122.812 210.168 120.372 221.505 110.826 C 220.464 118.374 220.046 123.842 219.704 131.462 C 231.936 121.214 234.763 119.65 249.509 113.192 z"/>
<path transform="translate(0,0)" fill="rgb(106,107,157)" d="M 249.509 113.192 C 250.34 113.657 251.367 114.231 252.589 114.915 C 264.332 114.036 276.708 111.822 288.475 113.028 C 300.893 114.302 314.575 118.336 326.009 123.713 C 331.193 126.151 338.908 131.374 344.376 135.756 C 356.093 145.148 370.092 163.129 387.008 162.753 C 387.579 162.74 389.553 161.703 390.137 161.382 L 393.113 161.412 L 393.689 162.696 C 389.108 167.046 381.917 167.35 377.331 169.141 C 375.827 173.161 380.639 183.961 382.412 188.908 C 380.718 191.022 380.476 192.073 378.174 192.779 C 377.086 190.35 377.032 188.943 375.024 188.059 C 373.387 191.679 373.409 201.953 373.215 206.436 C 370.145 199.691 367.146 193.225 362.627 187.283 C 358.47 187.105 358.298 186.29 355.059 188.075 C 350.553 182.977 345.642 177.467 342.05 171.732 C 341.522 183.129 339.959 205.276 328.716 211.272 C 324.459 207.611 330.437 191.958 328.323 187.131 C 326.226 188.554 326.004 189.312 324.913 191.646 C 318.908 200.822 315.274 202.075 305.393 206.48 C 300.161 198.833 290.906 183.343 283.488 179.229 L 281.877 179.88 C 280.823 182.562 278.395 189.25 276.932 191.306 C 269.873 195.201 265.668 201.525 258.786 205.647 C 254.069 208.472 245.417 208.118 242.276 211.562 L 240.759 212.583 C 234.39 216.077 231.078 216.763 224.192 218.17 C 219.71 216.762 215.22 215.38 210.722 214.024 C 204.819 207.631 204.404 203.361 201.025 195.498 C 197.587 200.9 195.396 207.256 188.513 205.009 C 185.125 202.029 183.086 196.886 181.101 192.738 C 184.596 168.246 181.114 178.353 189.906 155.087 C 192.503 153.983 198.789 148.806 201.337 146.824 C 198.822 146.509 196.31 146.172 193.8 145.813 C 189.501 145.187 186.605 145.065 183.999 141.566 L 185.5 140.007 C 194.273 137.055 197.939 137.365 206.927 137.903 C 208.83 122.812 210.168 120.372 221.505 110.826 C 220.464 118.374 220.046 123.842 219.704 131.462 C 231.936 121.214 234.763 119.65 249.509 113.192 z"/>
<path transform="translate(0,0)" fill="rgb(60,56,95)" d="M 342.05 171.732 L 342.116 167.05 L 342.934 167.172 L 345.673 172.828 C 352.283 177.169 358.409 180.496 362.627 187.283 C 358.47 187.105 358.298 186.29 355.059 188.075 C 350.553 182.977 345.642 177.467 342.05 171.732 z"/>
<path transform="translate(0,0)" fill="rgb(132,133,174)" d="M 349.653 148.76 C 357.514 150.542 362.058 155.73 362.642 163.692 C 352.261 165.758 349.65 157.086 349.653 148.76 z"/>
<path transform="translate(0,0)" fill="rgb(153,154,173)" d="M 327.548 154.29 C 337.305 155.539 338.336 164.214 335.445 171.854 C 327.795 172.179 327.409 159.266 327.548 154.29 z"/>
<path transform="translate(0,0)" fill="rgb(250,214,191)" d="M 283.478 186.14 C 286.785 192.427 290.956 203.825 291.954 210.99 C 292.518 215.036 290.947 225.618 293.219 228.327 C 301.707 232.534 311.493 221.488 318.521 219.165 L 320.223 221.722 C 323.538 222.052 325.957 219.33 329.819 218.106 L 330.251 217.973 C 332.76 217.263 334.063 216.511 336.322 215.32 C 337.925 211.614 338.549 211.044 341.643 208.439 C 346.837 207.94 348.992 207.592 354.061 208.651 L 357.853 208.575 C 361.692 213.842 364.86 226.359 365.138 233.157 C 365.093 244.175 365.853 249.166 368.644 259.905 C 370.039 265.146 369.557 267.525 368.946 272.955 C 365.439 283.012 358.384 292.422 348.794 297.824 C 342.021 301.64 339.137 296.286 334.83 297.744 C 327.637 300.179 320.07 306.273 312.956 309.301 C 307.452 302.304 302.439 296.116 296.046 306.483 C 292.916 311.559 294.363 311.41 287.808 310.486 C 281.452 309.872 278.278 309.662 272.075 307.723 C 262.337 307.154 249.538 301.109 241.2 296.25 C 238.841 294.025 230.569 286.288 226.611 285.375 C 226.584 285.369 222.319 286.279 221.847 286.378 C 217.264 287.505 210.014 287.067 205.698 284.909 C 194.086 278.097 191.996 272.891 190.66 260.029 C 191.116 258.465 191.622 256.717 192.375 255.264 C 209.498 222.23 220.231 270.782 236.158 266.004 C 239.625 261.592 235.946 245.902 237.001 234.915 C 238.944 234.355 240.846 233.662 242.694 232.841 C 263.678 223.763 275.417 206.654 283.478 186.14 z"/>
<path transform="translate(0,0)" fill="rgb(237,183,165)" d="M 205.698 284.909 C 216.594 281.056 195.597 268.16 195.054 263.219 L 197.297 264.71 C 197.414 262.324 197.656 260.394 197.973 258.025 C 202.428 250.508 212.94 252.844 216.235 259.626 C 218.461 263.778 220.373 266.854 221.115 271.565 C 222.736 280.523 225.583 274.484 229.234 277.885 C 242.269 290.028 249.736 295.959 266.641 301.996 L 266.814 304.424 C 268.27 305 271.42 306.278 272.075 307.723 C 262.337 307.154 249.538 301.109 241.2 296.25 C 238.841 294.025 230.569 286.288 226.611 285.375 C 226.584 285.369 222.319 286.279 221.847 286.378 C 217.264 287.505 210.014 287.067 205.698 284.909 z"/>
<path transform="translate(0,0)" fill="rgb(62,53,70)" d="M 221.115 271.565 C 216.012 270.988 218.148 266.454 213.858 263.555 C 210.352 261.184 205.004 258.838 201.134 257.012 L 201.786 256.285 C 209.105 255.478 209.557 256.114 216.235 259.626 C 218.461 263.778 220.373 266.854 221.115 271.565 z"/>
<path transform="translate(0,0)" fill="rgb(50,46,76)" d="M 349.052 258.573 C 348.837 258.528 348.621 258.484 348.406 258.44 L 348.036 258.347 C 331.426 254.405 334.632 224.455 351.099 226.984 C 354.799 227.552 361.051 233.683 358.958 238.996 L 361.538 239.112 L 362.225 240.464 C 360.924 244.113 359.189 245.553 356.505 248.306 L 354.862 248.827 L 353.597 252.129 L 349.052 258.573 z"/>
<path transform="translate(0,0)" fill="rgb(208,220,226)" d="M 354.862 248.827 C 354.849 242.2 352.559 239.367 352.631 234.773 C 355.128 234.837 356.627 236.972 358.958 238.996 L 361.538 239.112 L 362.225 240.464 C 360.924 244.113 359.189 245.553 356.505 248.306 L 354.862 248.827 z"/>
<path transform="translate(0,0)" fill="rgb(237,183,165)" d="M 349.052 258.573 L 353.597 252.129 C 357.321 258.337 360.512 262.199 368.644 259.905 C 370.039 265.146 369.557 267.525 368.946 272.955 C 366.971 265.292 343.546 283.727 349.052 258.573 z"/>
<path transform="translate(0,0)" fill="rgb(62,53,70)" d="M 341.643 208.439 C 346.837 207.94 348.992 207.592 354.061 208.651 L 356.472 212.442 L 355.947 213.71 C 352.338 213.927 349.895 213.111 347.675 213.29 C 343.88 213.595 340.918 216.637 336.322 215.32 C 337.925 211.614 338.549 211.044 341.643 208.439 z"/>
<path transform="translate(0,0)" fill="rgb(237,183,165)" d="M 266.641 301.996 C 271.241 302.898 282.875 304.628 286.165 306.527 C 286.695 307.718 287.454 309.267 287.808 310.486 C 281.452 309.872 278.278 309.662 272.075 307.723 C 271.42 306.278 268.27 305 266.814 304.424 L 266.641 301.996 z"/>
<path transform="translate(0,0)" fill="rgb(50,46,76)" d="M 271.952 232.951 C 281.374 232.185 286.03 230.321 290.888 239.793 C 292.584 250.345 294.613 261.157 281.806 265.042 L 277.53 267.55 L 270.636 265.994 C 267.291 262.945 259.704 256.71 260.673 252.059 C 258.893 243.351 265.378 237.196 271.952 232.951 z"/>
<path transform="translate(0,0)" fill="rgb(237,240,233)" d="M 271.952 232.951 C 272.558 233.93 274.182 236.432 274.543 237.372 C 269.94 249.519 269.408 258.316 281.806 265.042 L 277.53 267.55 L 270.636 265.994 C 267.291 262.945 259.704 256.71 260.673 252.059 C 258.893 243.351 265.378 237.196 271.952 232.951 z"/>
<path transform="translate(0,0)" fill="rgb(62,53,70)" d="M 271.952 232.951 C 272.558 233.93 274.182 236.432 274.543 237.372 C 264.297 244.001 266.681 245.082 260.673 252.059 C 258.893 243.351 265.378 237.196 271.952 232.951 z"/>
<path transform="translate(0,0)" fill="rgb(62,53,70)" d="M 271.952 232.951 C 281.374 232.185 286.03 230.321 290.888 239.793 C 285.427 239.182 279.971 238.247 274.543 237.372 C 274.182 236.432 272.558 233.93 271.952 232.951 z"/>
<path transform="translate(0,0)" fill="rgb(237,183,165)" d="M 270.636 265.994 L 277.53 267.55 C 280.683 271.167 281.475 272.62 281.357 277.047 C 277.068 285.829 258.332 284.826 253.631 276.908 C 253.517 267.679 263.536 266.895 270.636 265.994 z"/>
<path transform="translate(0,0)" fill="rgb(62,53,70)" d="M 277.558 213.074 C 281.524 213.434 286.257 213.726 289.038 216.879 L 288.475 217.749 C 284.403 219.95 282.431 218.862 277.382 218.685 C 273.434 220.167 270.049 222.158 266.207 220.019 L 266.861 217.978 C 269.769 214.764 273.362 214.217 277.558 213.074 z"/>
<path transform="translate(0,0)" fill="rgb(50,46,76)" d="M 304.755 275.236 C 317.107 279.077 316.712 276.712 327.285 278.628 L 328.167 280.448 C 320.287 282.221 309.302 283.249 304.755 275.236 z"/>
<path transform="translate(0,0)" fill="rgb(132,133,174)" d="M 254.126 307.406 C 259.421 309.556 261.664 310.248 267.244 311.493 C 267.101 317.462 265.864 318.169 262.153 323.36 C 264.723 324.267 267.353 325.142 269.838 326.254 C 268.398 329.496 269.225 328.402 266.072 330.554 L 268.2 331.989 C 272.013 337.598 275.79 343.232 279.529 348.891 L 280.856 350.57 C 281.279 354.008 275.945 363.229 274.002 367.07 L 274.298 366.827 C 281.932 360.434 283.731 356.134 289.228 347.848 C 291.523 343.565 292.311 342.676 295.708 339.183 C 303.372 333.946 315.771 340.635 322.265 345.529 C 330.878 354.772 320.621 372.451 315.47 381.9 C 316.854 381.375 317.57 380.988 319.068 380.995 L 320.743 382.775 L 318.72 385.853 C 322.917 390.745 324.092 393.057 327.052 398.607 C 325.823 405.553 320.787 412.104 313.214 411.862 L 308.405 412.872 C 306.393 410.223 301.95 406.375 299.352 403.984 L 294.787 404.261 C 280.833 406.47 268.52 401.213 255.289 406.242 C 247.423 409.232 240.287 411.98 233.379 416.886 C 221.133 423.772 221.512 427.859 206.998 431.628 C 205.429 432.285 203.946 432.305 202.245 432.467 L 200.783 431.109 L 202.249 428.253 C 196.93 415.217 205.3 390.458 208.91 376.662 C 214.33 355.95 226.55 329.639 242.504 314.683 C 244.56 312.756 251.367 308.952 254.126 307.406 z"/>
<path transform="translate(0,0)" fill="rgb(153,154,173)" d="M 257.323 374.478 C 246.82 363.969 228.56 334.731 247.141 322.139 C 251.49 319.192 257.418 321.789 262.153 323.36 C 264.723 324.267 267.353 325.142 269.838 326.254 C 268.398 329.496 269.225 328.402 266.072 330.554 L 268.2 331.989 C 272.013 337.598 275.79 343.232 279.529 348.891 L 280.856 350.57 C 281.279 354.008 275.945 363.229 274.002 367.07 L 274.298 366.827 C 281.932 360.434 283.731 356.134 289.228 347.848 C 291.523 343.565 292.311 342.676 295.708 339.183 C 303.372 333.946 315.771 340.635 322.265 345.529 C 319.901 372.881 292.88 404.657 265.624 382.1 C 262.172 379.367 260.391 377.647 257.323 374.478 z"/>
<path transform="translate(0,0)" fill="rgb(214,212,222)" d="M 266.072 330.554 L 268.2 331.989 C 272.013 337.598 275.79 343.232 279.529 348.891 L 277.7 349.332 C 271.645 345.641 267.206 338.002 264.574 331.573 L 266.072 330.554 z"/>
<path transform="translate(0,0)" fill="rgb(195,195,220)" d="M 257.323 374.478 C 261.857 372.659 260.052 372.87 264.855 373.513 C 267.593 375.885 266.873 374.72 267.792 378.194 L 265.624 382.1 C 262.172 379.367 260.391 377.647 257.323 374.478 z"/>
<path transform="translate(0,0)" fill="rgb(195,195,220)" d="M 295.708 339.183 C 297.586 343.301 295.517 345.736 292.26 348.491 C 290.13 348.786 290.93 348.978 289.228 347.848 C 291.523 343.565 292.311 342.676 295.708 339.183 z"/>
<path transform="translate(0,0)" fill="rgb(50,46,76)" d="M 231.346 359.127 C 240.586 365.885 249.04 381.01 259.661 389.437 C 282.735 407.745 298.942 405.579 315.47 381.9 C 316.854 381.375 317.57 380.988 319.068 380.995 L 320.743 382.775 L 318.72 385.853 C 322.917 390.745 324.092 393.057 327.052 398.607 C 325.823 405.553 320.787 412.104 313.214 411.862 L 308.405 412.872 C 306.393 410.223 301.95 406.375 299.352 403.984 L 294.787 404.261 C 280.833 406.47 268.52 401.213 255.289 406.242 C 247.423 409.232 240.287 411.98 233.379 416.886 C 221.133 423.772 221.512 427.859 206.998 431.628 C 205.429 432.285 203.946 432.305 202.245 432.467 L 200.783 431.109 L 202.249 428.253 C 214.462 427.721 226.911 414.65 239.484 408.816 C 250.617 403.649 252.908 402.651 265.305 399.054 C 250.995 388.134 238.058 376.229 231.346 359.127 z"/>
<path transform="translate(0,0)" fill="rgb(250,214,191)" d="M 318.72 385.853 C 322.917 390.745 324.092 393.057 327.052 398.607 C 325.823 405.553 320.787 412.104 313.214 411.862 L 308.405 412.872 C 306.393 410.223 301.95 406.375 299.352 403.984 C 300.104 403.606 302.239 401.64 303.01 400.961 C 309.658 396.426 312.989 391.362 318.72 385.853 z"/>
<path transform="translate(0,0)" fill="rgb(62,53,70)" d="M 299.352 403.984 C 300.104 403.606 302.239 401.64 303.01 400.961 C 306.426 404.475 310.095 408.109 313.214 411.862 L 308.405 412.872 C 306.393 410.223 301.95 406.375 299.352 403.984 z"/>
<path transform="translate(0,0)" fill="rgb(77,77,127)" d="M 165.872 201.58 C 166.381 186.158 177.722 164.57 189.906 155.087 C 181.114 178.353 184.596 168.246 181.101 192.738 C 183.086 196.886 185.125 202.029 188.513 205.009 C 195.396 207.256 197.587 200.9 201.025 195.498 C 204.404 203.361 204.819 207.631 210.722 214.024 C 215.22 215.38 219.71 216.762 224.192 218.17 C 231.078 216.763 234.39 216.077 240.759 212.583 C 232.132 235.965 233.241 237.848 234.263 262.843 C 218.994 253.838 222.391 252.817 214.953 237.967 C 214.13 236.323 213.49 235.747 211.994 235.822 L 211.799 236.117 C 203.658 248.287 191.524 235.048 187.64 259.93 L 189.545 260.919 L 190.253 263.385 L 185.792 265.8 C 173.619 252.335 166.424 240.344 163.187 222.367 C 165.657 215.827 165.286 208.79 165.872 201.58 z"/>
<path transform="translate(0,0)" fill="rgb(60,56,95)" d="M 163.187 222.367 C 165.657 215.827 165.286 208.79 165.872 201.58 C 165.776 221.997 169.092 241.927 184.448 257.194 C 185.447 258.18 186.513 259.094 187.64 259.93 L 189.545 260.919 L 190.253 263.385 L 185.792 265.8 C 173.619 252.335 166.424 240.344 163.187 222.367 z"/>
<path transform="translate(0,0)" fill="rgb(77,77,127)" d="M 281.877 179.88 L 283.488 179.229 C 290.906 183.343 300.161 198.833 305.393 206.48 C 315.274 202.075 318.908 200.822 324.913 191.646 C 329.334 200.377 318.826 215.023 311.307 218.767 L 309.377 221.095 C 305.571 223.126 300.396 224.819 296.258 226.311 C 296.232 210.086 296.939 204.639 287.986 189.591 C 285.707 185.761 283.836 184.032 281.877 179.88 z"/>
<path transform="translate(0,0)" fill="rgb(95,93,117)" d="M 309.377 221.095 C 305.279 219.634 302.428 218.743 300.366 215.097 L 301.251 213.249 C 306.966 211.899 308.014 214.87 311.307 218.767 L 309.377 221.095 z"/>
<path transform="translate(0,0)" fill="rgb(77,77,127)" d="M 355.059 188.075 C 358.298 186.29 358.47 187.105 362.627 187.283 C 367.146 193.225 370.145 199.691 373.215 206.436 C 373.409 201.953 373.387 191.679 375.024 188.059 C 377.032 188.943 377.086 190.35 378.174 192.779 C 382.238 205.774 378.378 208.506 381.202 218.386 C 380.289 221.282 378.393 225.158 379.124 227.559 C 378.096 230.096 374.781 233.568 371.96 234.115 L 370.463 232.596 C 369.084 229.023 370.558 225.536 371.596 221.727 C 366.11 206.801 364.467 201.01 355.059 188.075 z"/>
<path transform="translate(0,0)" fill="rgb(77,77,127)" d="M 276.932 191.306 C 270.297 205.399 260.849 220.26 245.36 225.861 C 243.143 226.641 240.906 227.362 238.65 228.023 C 240.075 222.989 242.167 216.674 242.276 211.562 C 245.417 208.118 254.069 208.472 258.786 205.647 C 265.668 201.525 269.873 195.201 276.932 191.306 z"/>
<path transform="translate(0,0)" fill="rgb(237,183,165)" d="M 344.769 190.101 L 345.655 186.091 L 346.979 185.419 C 358.863 190.689 367.737 220.657 365.138 233.157 C 364.86 226.359 361.692 213.842 357.853 208.575 L 354.061 208.651 C 348.992 207.592 346.837 207.94 341.643 208.439 L 339.259 205.996 C 341.4 201.655 343.281 194.878 344.769 190.101 z"/>
<path transform="translate(0,0)" fill="rgb(250,214,191)" d="M 344.769 190.101 C 349.538 191.607 354.331 203.355 357.853 208.575 L 354.061 208.651 C 348.992 207.592 346.837 207.94 341.643 208.439 L 339.259 205.996 C 341.4 201.655 343.281 194.878 344.769 190.101 z"/>
<path transform="translate(0,0)" fill="rgb(195,195,220)" d="M 272.253 332.22 L 273.649 330.624 C 277.437 330.597 294.609 331.669 297.164 333.278 C 291.36 337.075 288.188 342.318 284.343 347.937 C 280.725 342.886 276.107 337.204 272.253 332.22 z"/>
<path transform="translate(0,0)" fill="rgb(132,133,174)" d="M 287.298 327.114 L 287.602 327.16 C 293.667 328.032 295.658 325.447 299.005 327.276 C 299.984 329.681 299.925 330.011 299.26 332.537 L 297.164 333.278 C 294.609 331.669 277.437 330.597 273.649 330.624 L 272.253 332.22 C 271.662 331.645 270.416 331.083 269.631 330.669 L 268.2 331.989 L 266.072 330.554 C 269.225 328.402 268.398 329.496 269.838 326.254 C 275.116 326.441 282.193 326.488 287.298 327.114 z"/>
<path transform="translate(0,0)" fill="rgb(106,107,157)" d="M 267.244 311.493 C 273.246 321.351 276.418 323.571 287.298 327.114 C 282.193 326.488 275.116 326.441 269.838 326.254 C 267.353 325.142 264.723 324.267 262.153 323.36 C 265.864 318.169 267.101 317.462 267.244 311.493 z"/>
<path transform="translate(0,0)" fill="rgb(132,133,174)" d="M 338.955 366.602 C 335.491 366.21 332.02 365.881 328.545 365.616 L 327.77 364.361 C 328.694 357.117 328.832 347.897 333.852 343.601 C 333.831 350.777 331.902 363.003 338.955 366.602 z"/>
<path transform="translate(0,0)" fill="rgb(197,193,193)" d="M 339.259 205.996 L 341.643 208.439 C 338.549 211.044 337.925 211.614 336.322 215.32 C 334.063 216.511 332.76 217.263 330.251 217.973 C 333.168 213.917 336.171 209.923 339.259 205.996 z"/>
<path transform="translate(0,0)" fill="rgb(250,214,191)" d="M 335.899 301.911 C 338.358 301.954 338.665 301.995 340.721 303.328 C 340.042 307.214 334.109 310.563 333.72 312.236 C 332.668 316.759 341.476 322.118 339.895 328.453 C 338.171 335.359 332.191 339.292 326.916 343.015 C 320.452 338.739 318.008 337.349 310.877 334.348 C 308.288 333.789 305.678 333.545 303.907 331.623 C 302.783 327.5 298.894 306.306 301.659 304.116 C 305.773 305.261 308.443 310.546 313.376 313.428 C 319.178 312.013 327.807 305.238 335.899 301.911 z"/>
<path transform="translate(0,0)" fill="rgb(237,183,165)" d="M 273.196 313.843 C 280.13 314.07 290.139 313.846 296.465 316.011 C 298.964 318.738 298.297 317.467 298.741 321.578 C 287.452 325.735 280.914 321.814 273.196 313.843 z"/>
<path transform="translate(0,0)" fill="url(#Gradient1)" d="M 344.023 337.12 C 350.889 342.893 361.426 366.091 361.587 375.846 C 361.733 384.622 361.748 388.137 356.969 395.782 C 381.96 412.774 371.557 437.613 363.738 461.646 C 363.342 462.698 362.448 465.275 361.925 466.087 L 360.202 471.147 C 357.839 475.66 356.493 479.028 351.902 481.569 C 355.738 487.526 356.688 489.791 359.149 496.335 C 366.157 496.284 371.492 496.271 378.478 496.901 C 382.358 504.533 385.979 515.327 388.409 523.643 C 374.925 528.952 356.553 536.774 342.513 538.911 C 323.601 545.352 290.896 546.165 270.621 546.112 C 220.157 543.332 193.842 535.209 148.224 513.598 L 145.559 511.627 C 145.687 510.61 145.857 509.598 146.068 508.594 C 150.965 484.883 168.952 458.116 191.769 448.31 C 196.434 446.305 201.27 445.573 205.601 442.728 C 206.097 440.285 203.822 436.433 202.67 433.972 L 202.245 432.467 C 203.946 432.305 205.429 432.285 206.998 431.628 C 221.512 427.859 221.133 423.772 233.379 416.886 C 240.287 411.98 247.423 409.232 255.289 406.242 C 268.52 401.213 280.833 406.47 294.787 404.261 L 299.352 403.984 C 301.95 406.375 306.393 410.223 308.405 412.872 L 313.214 411.862 C 320.787 412.104 325.823 405.553 327.052 398.607 C 324.092 393.057 322.917 390.745 318.72 385.853 L 320.743 382.775 C 320.169 379.81 323.708 374.508 325.303 371.665 C 329.332 370.342 336.953 369.854 339.733 367.926 L 338.955 366.602 C 331.902 363.003 333.831 350.777 333.852 343.601 L 337.675 340.72 L 340.299 338.059 L 344.023 337.12 z"/>
<path transform="translate(0,0)" fill="rgb(153,154,173)" d="M 208.107 446.259 C 216.578 456.589 223.906 459.654 236.282 462.499 C 244.351 471.353 263.013 462.479 270.81 466.511 C 272.607 472.861 274.446 479.025 277.818 484.783 C 274.11 489.897 269.409 490.431 263.112 492.402 C 266.686 497.645 269.525 502.014 273.836 506.724 C 283.083 515.621 292.316 525.069 306.105 524.734 C 312.77 524.598 319.131 521.918 323.883 517.243 C 336.227 517.109 344.445 518.111 353.677 509.004 C 359.457 505.633 359.118 502.403 359.149 496.335 C 366.157 496.284 371.492 496.271 378.478 496.901 C 382.358 504.533 385.979 515.327 388.409 523.643 C 374.925 528.952 356.553 536.774 342.513 538.911 C 323.601 545.352 290.896 546.165 270.621 546.112 C 220.157 543.332 193.842 535.209 148.224 513.598 C 161.317 475.884 169.882 460.62 208.107 446.259 z"/>
<path transform="translate(0,0)" fill="rgb(177,175,177)" d="M 233.369 476.493 C 240.224 475.872 245.002 475.522 251.186 479.093 C 255.175 482.436 256.676 483.686 259.812 487.79 L 263.112 492.402 C 266.686 497.645 269.525 502.014 273.836 506.724 C 283.083 515.621 292.316 525.069 306.105 524.734 C 312.77 524.598 319.131 521.918 323.883 517.243 C 336.227 517.109 344.445 518.111 353.677 509.004 C 359.457 505.633 359.118 502.403 359.149 496.335 C 366.157 496.284 371.492 496.271 378.478 496.901 C 382.358 504.533 385.979 515.327 388.409 523.643 C 374.925 528.952 356.553 536.774 342.513 538.911 C 323.601 545.352 290.896 546.165 270.621 546.112 C 267.144 540.686 262.794 543.9 258.067 536.996 C 254.348 537.27 251.05 536.29 247.411 535.461 C 238.503 526.32 236.888 521.51 231.365 509.928 L 229 505.779 C 220.168 493.16 215.357 499.735 211.494 497.462 C 210.843 493.564 213.886 496.427 214.79 491.607 L 211.656 488.247 L 213.649 485.809 C 221.015 479.705 224.375 478.952 233.369 476.493 z"/>
<path transform="translate(0,0)" fill="rgb(164,162,168)" d="M 258.067 536.996 C 268.129 536.293 280.98 529.297 287.928 534.473 C 293.284 538.463 311.302 534.566 313.01 535.781 C 325.605 544.744 330.804 537.11 342.513 538.911 C 323.601 545.352 290.896 546.165 270.621 546.112 C 267.144 540.686 262.794 543.9 258.067 536.996 z"/>
<path transform="translate(0,0)" fill="rgb(197,193,193)" d="M 259.812 487.79 L 257.8 489.743 C 253.754 490.591 254.877 490.877 251.12 489.731 C 247.322 485.729 246.91 482.984 251.186 479.093 C 255.175 482.436 256.676 483.686 259.812 487.79 z"/>
<path transform="translate(0,0)" fill="rgb(164,162,168)" d="M 213.649 485.809 C 211.166 483.019 213.787 483.365 209.567 482.64 C 204.818 481.823 199.883 480.227 195.802 477.636 C 193.041 475.882 192.953 475.055 192.304 472.168 C 193.266 469.152 194.396 468.5 196.824 466.571 C 204.946 464.735 224.841 473.932 232.912 476.358 L 233.369 476.493 C 224.375 478.952 221.015 479.705 213.649 485.809 z"/>
<path transform="translate(0,0)" fill="rgb(164,162,168)" d="M 211.656 488.247 L 214.79 491.607 C 213.886 496.427 210.843 493.564 211.494 497.462 C 215.357 499.735 220.168 493.16 229 505.779 C 219.683 505.483 206.775 512.441 202.614 511.466 L 201.507 510.239 C 202.865 498.754 204.684 497.535 211.656 488.247 z"/>
<path transform="translate(0,0)" fill="rgb(123,121,135)" d="M 233.379 416.886 C 240.287 411.98 247.423 409.232 255.289 406.242 C 268.52 401.213 280.833 406.47 294.787 404.261 L 299.352 403.984 C 301.95 406.375 306.393 410.223 308.405 412.872 C 313.611 421.961 316.56 430.44 317.315 440.993 C 319.001 446.153 322.344 472.384 319.357 477.448 C 317.031 481.392 314.456 482.147 310.463 483.413 C 307.509 484.341 304.51 485.12 301.477 485.746 C 286.666 484.72 277.843 447.192 272.332 434.951 L 272.392 433.33 C 267.562 430.434 239.662 437.801 230.392 427.321 C 230.605 425.329 232.725 419.149 233.379 416.886 z"/>
<path transform="translate(0,0)" fill="rgb(164,162,168)" d="M 294.787 404.261 L 299.352 403.984 C 301.95 406.375 306.393 410.223 308.405 412.872 C 313.611 421.961 316.56 430.44 317.315 440.993 L 316.076 441.341 C 313.467 438.145 312.841 426.796 309.002 420.206 C 303.004 409.909 300.843 410.99 295.13 404.647 L 294.787 404.261 z"/>
<path transform="translate(0,0)" fill="rgb(95,93,117)" d="M 206.998 431.628 C 221.512 427.859 221.133 423.772 233.379 416.886 C 232.725 419.149 230.605 425.329 230.392 427.321 C 239.662 437.801 267.562 430.434 272.392 433.33 L 272.332 434.951 C 277.843 447.192 286.666 484.72 301.477 485.746 C 292.986 487.478 287.079 485.82 279.81 481.976 C 277.294 474.045 270.008 444.081 266.91 439.634 L 267.266 440.249 L 266.337 441.106 C 265.948 445.809 267.522 451.668 268.537 456.384 C 239.45 460.539 218.676 464.205 206.998 431.628 z"/>
<path transform="translate(0,0)" fill="rgb(106,107,157)" d="M 230.392 427.321 C 239.662 437.801 267.562 430.434 272.392 433.33 L 272.332 434.951 C 262.665 429.486 265.689 441.006 255.621 442.2 C 244.019 443.575 232.622 439.361 230.392 427.321 z"/>
<path transform="translate(0,0)" fill="rgb(153,154,173)" d="M 349.726 483.769 C 350.072 483.274 351.394 482.062 351.902 481.569 C 355.738 487.526 356.688 489.791 359.149 496.335 C 359.118 502.403 359.457 505.633 353.677 509.004 C 344.445 518.111 336.227 517.109 323.883 517.243 C 319.131 521.918 312.77 524.598 306.105 524.734 C 292.316 525.069 283.083 515.621 273.836 506.724 C 277.329 505.29 277.091 502.208 281.143 500.623 C 284.111 501.574 285.549 502.483 288.189 504 L 290.847 504.917 L 295.113 503.761 C 299.41 505.243 303.75 506.593 308.129 507.81 C 318.499 509.495 324.958 510.765 331.796 502.056 C 332.915 498.844 332.415 497.323 331.757 494.084 L 332.931 494.053 C 332.281 488.915 332.195 485.772 332.19 480.576 C 337.318 481.797 347.555 481.859 349.726 483.769 z"/>
<path transform="translate(0,0)" fill="rgb(95,93,117)" d="M 332.19 480.576 C 337.318 481.797 347.555 481.859 349.726 483.769 L 349.68 484.8 C 351.715 489.225 353.66 492.926 354.371 497.796 C 355.203 499.626 354.78 500.473 354.23 502.418 C 346.447 506.516 337.093 501.318 332.931 494.053 C 332.281 488.915 332.195 485.772 332.19 480.576 z"/>
<path transform="translate(0,0)" fill="rgb(123,121,135)" d="M 354.371 497.796 L 353.904 498.104 L 352.529 497.546 C 350.441 494.149 347.762 489.751 347.578 485.766 L 349.68 484.8 C 351.715 489.225 353.66 492.926 354.371 497.796 z"/>
<path transform="translate(0,0)" fill="rgb(50,46,76)" d="M 349.726 483.769 C 350.072 483.274 351.394 482.062 351.902 481.569 C 355.738 487.526 356.688 489.791 359.149 496.335 C 359.118 502.403 359.457 505.633 353.677 509.004 C 348.477 508.909 336.36 504.273 334.191 506.208 C 322.254 516.86 304.299 512.085 290.847 504.917 L 295.113 503.761 C 299.41 505.243 303.75 506.593 308.129 507.81 C 318.499 509.495 324.958 510.765 331.796 502.056 C 332.915 498.844 332.415 497.323 331.757 494.084 L 332.931 494.053 C 337.093 501.318 346.447 506.516 354.23 502.418 C 354.78 500.473 355.203 499.626 354.371 497.796 C 353.66 492.926 351.715 489.225 349.68 484.8 L 349.726 483.769 z"/>
<path transform="translate(0,0)" fill="rgb(153,154,173)" d="M 340.299 338.059 C 348.61 349.461 352.735 358.798 357.547 372.075 C 358.248 376.126 359.173 380.06 358.472 384.112 C 345.977 391.605 347.608 393.583 330.515 394.735 L 330.536 397.777 L 327.052 398.607 C 324.092 393.057 322.917 390.745 318.72 385.853 L 320.743 382.775 C 320.169 379.81 323.708 374.508 325.303 371.665 C 329.332 370.342 336.953 369.854 339.733 367.926 L 338.955 366.602 C 331.902 363.003 333.831 350.777 333.852 343.601 L 337.675 340.72 L 340.299 338.059 z"/>
<path transform="translate(0,0)" fill="rgb(214,212,222)" d="M 340.299 338.059 C 348.61 349.461 352.735 358.798 357.547 372.075 C 357.082 374.21 357.058 374.623 355.519 376.167 C 355.384 376.088 339.493 344.411 337.675 340.72 L 340.299 338.059 z"/>
<path transform="translate(0,0)" fill="rgb(50,46,76)" d="M 320.743 382.775 C 325.372 385.896 327.619 389.97 330.515 394.735 L 330.536 397.777 L 327.052 398.607 C 324.092 393.057 322.917 390.745 318.72 385.853 L 320.743 382.775 z"/>
<path transform="translate(0,0)" fill="rgb(95,93,117)" d="M 309.308 489.548 L 318.603 485.149 C 324.529 490.803 327.688 494.719 331.796 502.056 C 324.958 510.765 318.499 509.495 308.129 507.81 C 303.75 506.593 299.41 505.243 295.113 503.761 L 294.172 502.766 C 294.765 497.714 295.757 492.494 300.87 490.327 L 309.308 489.548 z"/>
<path transform="translate(0,0)" fill="rgb(77,77,127)" d="M 300.87 490.327 L 309.308 489.548 C 296.062 493.43 300.452 500.803 308.129 507.81 C 303.75 506.593 299.41 505.243 295.113 503.761 L 294.172 502.766 C 294.765 497.714 295.757 492.494 300.87 490.327 z"/>
<path transform="translate(0,0)" fill="rgb(123,121,135)" d="M 277.818 484.783 C 284.755 490.73 284.044 495.864 288.189 504 C 285.549 502.483 284.111 501.574 281.143 500.623 C 277.091 502.208 277.329 505.29 273.836 506.724 C 269.525 502.014 266.686 497.645 263.112 492.402 C 269.409 490.431 274.11 489.897 277.818 484.783 z"/>
<path transform="translate(0,0)" fill="rgb(132,133,174)" d="M 330.515 394.735 C 347.608 393.583 345.977 391.605 358.472 384.112 C 355.041 392.76 340.4 410.029 330.885 403.7 C 330.262 401.089 330.325 400.473 330.536 397.777 L 330.515 394.735 z"/>
<path transform="translate(0,0)" fill="rgb(123,121,135)" d="M 236.282 462.499 C 246.157 463.095 259.771 460.59 269.183 461.906 C 269.856 462 270.601 465.559 270.81 466.511 C 263.013 462.479 244.351 471.353 236.282 462.499 z"/>
<path transform="translate(0,0)" fill="rgb(77,77,127)" d="M 331.757 494.084 C 329.459 489.108 324.222 486.277 322.814 480.638 L 323.963 479.234 C 327.373 478.655 328.953 479.455 332.19 480.576 C 332.195 485.772 332.281 488.915 332.931 494.053 L 331.757 494.084 z"/>
<path transform="translate(0,0)" fill="rgb(60,56,95)" d="M 287.635 490.469 L 300.87 490.327 C 295.757 492.494 294.765 497.714 294.172 502.766 C 289.918 499.561 289.133 495.425 287.635 490.469 z"/>
<path transform="translate(0,0)" fill="rgb(123,121,135)" d="M 343.034 407.167 C 346.363 405.042 352.848 399.921 355.867 400.431 C 373.168 409.198 370.051 430.714 364.62 446.165 C 362.938 451.444 361.166 456.695 359.306 461.915 C 353.472 476.388 352.414 480.673 335.133 476.718 C 332.052 475.839 328.335 474.466 325.241 473.415 C 325.08 462.127 322.446 451.5 322.032 440.318 C 321.835 434.985 326.546 428.701 325.267 423.486 L 324.003 423.558 L 319.891 429.022 C 318.572 427.655 316.752 419.604 316.075 417.138 C 327.419 410.768 330.382 409.903 343.034 407.167 z"/>
<path transform="translate(0,0)" fill="rgb(95,93,117)" d="M 316.075 417.138 C 327.419 410.768 330.382 409.903 343.034 407.167 C 331.45 423.967 331.758 434.737 330.532 455.007 L 331.427 456.269 C 331.055 465.642 330.789 468.169 335.133 476.718 C 332.052 475.839 328.335 474.466 325.241 473.415 C 325.08 462.127 322.446 451.5 322.032 440.318 C 321.835 434.985 326.546 428.701 325.267 423.486 L 324.003 423.558 L 319.891 429.022 C 318.572 427.655 316.752 419.604 316.075 417.138 z"/>
<path transform="translate(0,0)" fill="rgb(106,107,157)" d="M 331.427 456.269 C 333.274 458.954 334.601 461.577 337.66 462.577 C 346.097 463.183 350.131 458.789 359.306 461.915 C 353.472 476.388 352.414 480.673 335.133 476.718 C 330.789 468.169 331.055 465.642 331.427 456.269 z"/>
<path transform="translate(0,0)" fill="rgb(164,162,168)" d="M 364.62 446.165 C 359.652 438.118 373.338 425.396 355.299 402.356 L 355.867 400.431 C 373.168 409.198 370.051 430.714 364.62 446.165 z"/>
<path transform="translate(0,0)" fill="rgb(50,46,76)" d="M 224.279 122.489 C 264.704 94.4272 315.759 97.6383 353.893 128.674 C 364.694 137.464 371.822 150.117 385.515 154.935 C 390.562 156.349 395.05 156.626 398.544 159.88 C 401.172 166.228 390.125 170.119 385.24 172.072 L 388.114 180.042 L 390.368 188.091 L 391.756 192.719 L 392.202 205.62 L 391.228 208.483 L 387.817 208.376 C 385.707 217.413 384.654 220.086 379.124 227.559 C 378.393 225.158 380.289 221.282 381.202 218.386 C 378.378 208.506 382.238 205.774 378.174 192.779 C 380.476 192.073 380.718 191.022 382.412 188.908 C 380.639 183.961 375.827 173.161 377.331 169.141 C 381.917 167.35 389.108 167.046 393.689 162.696 L 393.113 161.412 L 390.137 161.382 C 389.553 161.703 387.579 162.74 387.008 162.753 C 370.092 163.129 356.093 145.148 344.376 135.756 C 338.908 131.374 331.193 126.151 326.009 123.713 C 314.575 118.336 300.893 114.302 288.475 113.028 C 276.708 111.822 264.332 114.036 252.589 114.915 C 251.367 114.231 250.34 113.657 249.509 113.192 C 234.763 119.65 231.936 121.214 219.704 131.462 C 220.046 123.842 220.464 118.374 221.505 110.826 C 210.168 120.372 208.83 122.812 206.927 137.903 C 197.939 137.365 194.273 137.055 185.5 140.007 L 183.999 141.566 C 186.605 145.065 189.501 145.187 193.8 145.813 C 196.31 146.172 198.822 146.509 201.337 146.824 C 198.789 148.806 192.503 153.983 189.906 155.087 C 177.722 164.57 166.381 186.158 165.872 201.58 C 165.286 208.79 165.657 215.827 163.187 222.367 C 158.861 194.696 167.42 166.667 190.441 149.682 C 186.662 149.098 180.918 148.628 178.518 145.752 C 176.867 133.841 189.573 134.69 197.963 133.115 C 206.945 131.428 205.833 120.396 211.001 113.586 C 214.464 109.023 221.054 104.743 226.319 108.48 C 226.966 112.329 225.185 118.462 224.279 122.489 z"/>
<path transform="translate(0,0)" fill="rgb(153,154,173)" d="M 249.509 113.192 C 278.505 104.168 306.177 106.359 333.494 119.917 C 358.54 132.348 364.628 152.698 389.941 161.318 L 390.137 161.382 C 389.553 161.703 387.579 162.74 387.008 162.753 C 370.092 163.129 356.093 145.148 344.376 135.756 C 338.908 131.374 331.193 126.151 326.009 123.713 C 314.575 118.336 300.893 114.302 288.475 113.028 C 276.708 111.822 264.332 114.036 252.589 114.915 C 251.367 114.231 250.34 113.657 249.509 113.192 z"/>
<path transform="translate(0,0)" fill="rgb(132,133,174)" d="M 377.331 169.141 C 387.124 177.665 388.526 196.284 387.817 208.376 C 385.707 217.413 384.654 220.086 379.124 227.559 C 378.393 225.158 380.289 221.282 381.202 218.386 C 378.378 208.506 382.238 205.774 378.174 192.779 C 380.476 192.073 380.718 191.022 382.412 188.908 C 380.639 183.961 375.827 173.161 377.331 169.141 z"/>
<path transform="translate(0,0)" fill="rgb(95,93,117)" d="M 378.174 192.779 C 380.476 192.073 380.718 191.022 382.412 188.908 C 386.799 201.847 385.439 205.971 381.202 218.386 C 378.378 208.506 382.238 205.774 378.174 192.779 z"/>
<path transform="translate(0,0)" fill="rgb(208,220,226)" d="M 361.925 466.087 C 381.71 481.428 389.184 496.755 393.669 521.493 L 388.409 523.643 C 385.979 515.327 382.358 504.533 378.478 496.901 C 371.492 496.271 366.157 496.284 359.149 496.335 C 356.688 489.791 355.738 487.526 351.902 481.569 C 356.493 479.028 357.839 475.66 360.202 471.147 L 361.925 466.087 z"/>
<path transform="translate(0,0)" fill="rgb(197,193,193)" d="M 351.902 481.569 C 356.493 479.028 357.839 475.66 360.202 471.147 C 361.666 475.518 373.711 485.411 378.478 496.901 C 371.492 496.271 366.157 496.284 359.149 496.335 C 356.688 489.791 355.738 487.526 351.902 481.569 z"/>
<path transform="translate(0,0)" fill="rgb(50,46,76)" d="M 190.253 263.385 L 189.707 262.002 L 190.66 260.029 C 191.996 272.891 194.086 278.097 205.698 284.909 C 210.014 287.067 217.264 287.505 221.847 286.378 C 222.319 286.279 226.584 285.369 226.611 285.375 C 230.569 286.288 238.841 294.025 241.2 296.25 L 237.382 298.986 C 237.321 300 237.21 302.893 236.955 303.683 C 222.344 300.611 201.607 290.507 191.717 278.885 C 190.337 277.263 187.148 268.642 185.792 265.8 L 190.253 263.385 z"/>
<path transform="translate(0,0)" fill="rgb(60,56,95)" d="M 221.847 286.378 C 222.319 286.279 226.584 285.369 226.611 285.375 C 230.569 286.288 238.841 294.025 241.2 296.25 L 237.382 298.986 C 234.572 299.15 223.527 294.414 220.845 292.539 L 221.217 291.214 C 223.333 290.675 225.098 290.388 227.254 290.042 L 221.847 286.378 z"/>
<path transform="translate(0,0)" fill="rgb(195,195,220)" d="M 385.515 154.935 C 386.953 154.849 392.998 154.527 393.892 155.033 C 399.497 158.204 416.702 162.674 418.777 168.522 C 416.294 175.025 405.533 176.004 399.215 177.337 C 394.63 177.73 391.926 177.379 388.114 180.042 L 385.24 172.072 C 390.125 170.119 401.172 166.228 398.544 159.88 C 395.05 156.626 390.562 156.349 385.515 154.935 z"/>
<path transform="translate(0,0)" fill="rgb(62,53,70)" d="M 361.925 466.087 C 362.448 465.275 363.342 462.698 363.738 461.646 C 381.282 476.238 386.654 483.596 393.99 506.122 C 394.776 508.537 397.049 517.274 398.162 518.887 L 393.669 521.493 C 389.184 496.755 381.71 481.428 361.925 466.087 z"/>
<path transform="translate(0,0)" fill="rgb(214,212,222)" d="M 388.114 180.042 C 391.926 177.379 394.63 177.73 399.215 177.337 C 400.512 180.755 401.402 182.343 400.345 185.906 C 397.982 188.72 399.12 187.873 395.583 189.228 L 390.368 188.091 L 388.114 180.042 z"/>
<path transform="translate(0,0)" fill="rgb(237,240,233)" d="M 202.67 433.972 C 202.454 438.788 203.228 438.786 200.705 442.057 L 198.716 442.192 C 194.529 439.412 193.338 435.02 196.497 430.983 L 199.903 430.799 L 200.783 431.109 L 202.245 432.467 L 202.67 433.972 z"/>
<path transform="translate(0,0)" fill="rgb(195,195,220)" d="M 391.756 192.719 C 395.627 195.295 398.887 196.049 401.27 198.732 C 400.441 201.276 396.18 203.361 393.631 203.945 L 392.202 205.62 L 391.756 192.719 z"/>
<path transform="translate(0,0)" fill="rgb(237,183,165)" d="M 423.626 110.433 C 443.746 91.2373 461.293 100.818 465.502 126.471 C 462.877 131.995 454.77 144.225 453.951 147.067 C 453.669 150.788 453.576 156.76 450.752 159.127 C 437.99 169.828 432.089 159.325 431.865 147.49 C 424.885 131.596 415.955 130.308 423.626 110.433 z"/>
<path transform="translate(0,0)" fill="rgb(239,234,198)" d="M 423.858 126.719 C 424.807 117.423 426.373 110.394 435.521 106.115 C 446.6 100.934 456.279 107.545 461.015 117.425 L 461.148 126.169 C 459.019 133.087 454.622 139.185 449.435 144.168 L 447.601 144.764 C 445.047 140.806 449.676 129.7 445.447 127.618 L 443.474 130.324 C 441.223 130.485 438.139 130.285 436.345 128.8 L 436.365 124.512 L 434.771 123.97 C 432.419 129.147 440.007 135.959 437.984 141.46 C 437.568 142.593 437.176 145.051 436.82 146.408 C 432.029 139.209 428.22 134.427 423.858 126.719 z"/>
<path transform="translate(0,0)" fill="rgb(237,240,233)" d="M 461.015 117.425 L 461.148 126.169 C 457.133 127.032 454.872 128.096 452.276 124.415 C 453.069 119.656 457.053 118.766 461.015 117.425 z"/>
<path transform="translate(0,0)" fill="rgb(132,133,174)" d="M 436.82 146.408 C 443.565 146.229 447.258 146.428 453.951 147.067 C 453.669 150.788 453.576 156.76 450.752 159.127 C 437.99 169.828 432.089 159.325 431.865 147.49 L 436.82 146.408 z"/>
<path transform="translate(0,0)" fill="rgb(239,234,198)" d="M 129.473 307.801 C 139.571 307.119 142.949 312.077 146.717 320.395 C 142.572 328.151 141.661 331.464 133.513 334.125 C 129.019 333.495 124.941 331.945 120.661 330.478 C 118.805 327.352 117.002 324.195 115.253 321.007 C 119.892 313.347 121.518 311.989 129.473 307.801 z"/>
<path transform="translate(0,0)" fill="rgb(237,240,233)" d="M 131.633 313.825 C 133.065 315.82 134.866 317.795 136.487 319.661 C 136.524 323.811 134.04 322.354 131.935 329.098 L 131.835 329.426 L 125.349 320.272 C 127.632 318.59 129.733 315.984 131.633 313.825 z"/>
<path transform="translate(0,0)" fill="rgb(183,220,205)" d="M 119.355 161.218 C 119.291 159.713 118.882 157.219 118.673 155.639 C 120.704 157.829 120.991 158.323 121.973 161.144 L 121.974 161.11 L 122.787 161.06 C 123.849 159.712 125.46 158.615 126.839 157.56 C 130.212 157.97 135.959 165.637 135.934 169.165 C 135.145 170.731 134.263 171.37 132.622 171.955 C 121.151 176.048 122.568 178.161 119.448 188.394 L 117.597 188.849 C 115.052 187.002 115.264 180.576 113.965 178.458 C 111.718 174.794 105.296 175.277 103.109 171.478 C 104.759 169.289 108.684 168.303 111.619 167.144 L 112.055 165.819 C 106.875 162.477 107.914 164.115 101.381 162.915 L 101.555 162.222 C 105.787 161.133 107.679 161.897 111.923 163.011 C 114.918 162.101 114.145 162.775 115.796 160.508 C 113.131 158.532 109.203 160.371 103.644 160.173 L 103.296 159.27 C 106.656 157.557 112.112 157 115.771 157.609 L 117.834 160.948 L 119.355 161.218 z"/>
<path transform="translate(0,0)" fill="rgb(237,240,233)" d="M 119.355 161.218 C 121.72 172.01 126.651 167.673 129.814 171.219 C 115.874 176.409 125.001 181.241 118.316 185.777 L 116.995 185.17 C 114.855 176.704 115.259 175.996 107.246 172.348 C 107.352 168.438 112.743 170.992 117.834 160.948 L 119.355 161.218 z"/>
<path transform="translate(0,0)" fill="rgb(214,212,222)" d="M 475.032 291.306 C 474.002 293.202 471.57 294.791 469.582 294.258 C 458.791 291.37 451.589 278.848 462.515 270.324 C 475.454 260.23 489.682 279.877 478.259 287.412 C 477.387 288.444 475.738 290.279 475.032 291.306 z"/>
<path transform="translate(0,0)" fill="rgb(237,240,233)" d="M 469.632 290.95 C 468.027 285.454 467.385 284.576 463.345 280.501 L 462.679 280.676 C 464.664 279.235 468.1 275.432 469.951 273.486 C 474.622 278.359 471.222 277.179 478.177 279.742 L 479.419 281.495 C 479.017 283.346 478.468 285.57 478.259 287.412 C 477.387 288.444 475.738 290.279 475.032 291.306 L 469.632 290.95 z"/>
<path transform="translate(0,0)" fill="rgb(208,220,226)" d="M 478.177 279.742 L 479.419 281.495 C 479.017 283.346 478.468 285.57 478.259 287.412 C 477.387 288.444 475.738 290.279 475.032 291.306 L 469.632 290.95 C 471.89 284.084 472.141 283.373 478.177 279.742 z"/>
<path transform="translate(0,0)" fill="rgb(237,240,233)" d="M 139.593 76.0885 C 154.13 78.1899 158.806 84.6047 145.601 94.862 L 143.552 96.8326 L 140.735 96.7572 C 132.264 92.2516 131.63 81.75 139.593 76.0885 z"/>
<path transform="translate(0,0)" fill="rgb(237,240,233)" d="M 433.199 179.669 C 436.992 178.809 440.769 181.169 441.66 184.955 C 442.552 188.741 440.224 192.537 436.446 193.461 C 432.622 194.396 428.769 192.034 427.867 188.202 C 426.965 184.371 429.359 180.538 433.199 179.669 z"/>
<path transform="translate(0,0)" fill="rgb(183,220,205)" d="M 78.5971 207.51 C 82.7501 207.307 84.0408 207.091 86.9043 209.528 C 88.1345 212.443 87.2849 215.609 86.8019 218.802 C 83.3435 218.497 82.7 218.347 80.1415 216.02 C 78.3031 212.576 78.4737 211.357 78.5971 207.51 z"/>
<path transform="translate(0,0)" fill="rgb(237,240,233)" d="M 420.984 205.54 C 423.429 204.362 426.367 205.325 427.64 207.722 C 428.912 210.119 428.063 213.093 425.717 214.457 C 424.116 215.388 422.135 215.368 420.553 214.406 C 418.971 213.444 418.043 211.694 418.132 209.845 C 418.222 207.996 419.317 206.344 420.984 205.54 z"/>
<path transform="translate(0,0)" fill="rgb(214,212,222)" d="M 349.762 57.925 C 351.292 60.2304 352.601 62.219 353.967 64.6492 C 353.522 68.6702 352.585 68.5768 349.581 72.2922 L 345.42 67.571 C 345.404 64.4834 347.866 62.1619 349.762 57.925 z"/>
<path transform="translate(0,0)" fill="rgb(237,240,233)" d="M 411.797 95.9665 C 415.478 97.1554 419.434 101.135 419.761 105.124 C 414.354 104.128 411.881 101.232 411.797 95.9665 z"/>
<path transform="translate(0,0)" fill="rgb(0,0,0)" d="M 843.236 158.378 C 852.996 158.178 864.614 158.682 874.512 158.852 C 873.601 224.874 875.725 293.232 873.923 358.736 C 865.9 357.95 843.268 358.657 834.445 358.745 C 834.825 331.439 834.821 304.129 834.432 276.823 C 834.34 261.749 833.627 242.976 835.465 228.391 C 827.373 244.705 817.416 260.209 808.448 276.038 C 797.024 296.202 785.682 316.086 773.833 336.02 C 766.451 336 759.069 335.879 751.69 335.657 C 747.496 330.212 733.375 305.658 729.35 298.7 C 716.29 276.124 701.241 252.588 688.931 229.857 C 689.394 237.961 689.147 247.604 689.127 255.838 C 689.359 290.031 689.299 324.226 688.947 358.418 C 676.782 358.264 663.501 358.678 651.255 358.832 C 651.679 292.462 651.589 226.09 650.987 159.722 C 660.819 158.063 676.584 158.672 686.917 158.873 C 710.726 200.616 738.005 244.218 762.911 285.773 L 820.105 190.795 C 826.076 180.969 830.94 170.866 836.859 161.057 C 838.259 158.736 840.691 158.81 843.236 158.378 z"/>
<path transform="translate(0,0)" fill="rgb(0,0,0)" d="M 1293.8 148.296 C 1305.05 147.69 1320.45 148.096 1331.98 148.105 C 1330.86 168.164 1331.5 200.977 1331.44 221.783 L 1330.98 358.788 C 1323.55 357.834 1301.88 358.394 1294.16 358.604 C 1293.84 352.685 1294.19 347.058 1294.47 341.153 C 1272.72 362.537 1245.07 366.368 1216.97 356.017 C 1207.81 351.657 1198.57 345.579 1191.75 337.955 C 1157.05 299.174 1169.34 223.061 1223.76 209.095 C 1232.45 206.864 1241.99 205.716 1251 206.325 C 1268.95 207.54 1280.68 210.799 1292.94 224.593 C 1293.69 205.339 1293.31 185.873 1293.35 166.596 C 1293.36 160.429 1293.07 154.435 1293.8 148.296 z M 1261.91 325.927 C 1273.47 321.589 1284.82 315.607 1289.07 303.444 C 1302.48 265.122 1281.86 237.287 1242.63 241.13 C 1187.45 258.461 1213.76 340.274 1261.91 325.927 z"/>
<path transform="translate(0,0)" fill="rgb(0,0,0)" d="M 1587.36 156.451 C 1622.63 153.381 1642.72 158.284 1673.14 174.819 C 1669.45 185.34 1663.84 197.759 1659.39 208.214 C 1639.2 194.584 1594.01 180.265 1573.03 199.719 C 1543.25 227.335 1602.64 240.021 1620.43 243.743 C 1649.73 250.812 1680.32 263.847 1680.28 298.837 C 1680.22 346.989 1643.97 360.22 1602.15 361.323 C 1566.16 361.147 1549.79 355.455 1520.55 335.653 C 1525.68 325.039 1530.87 314.46 1536.14 303.916 C 1558.75 317.58 1579.7 329.494 1607.05 327.135 C 1620.09 326.011 1642.58 318.128 1639.37 301.707 C 1635.19 280.279 1594 277.604 1576.76 271.813 C 1550.15 263.072 1526.12 251.404 1525.93 219.489 C 1525.69 181.608 1550.54 161.241 1587.36 156.451 z"/>
<path transform="translate(0,0)" fill="rgb(0,0,0)" d="M 1964.58 206.349 C 1986.67 204.038 2010.57 212.056 2025.55 228.635 C 2042.99 247.949 2046.7 269.932 2045.66 295.133 C 2030.87 296.595 2002.26 295.06 1986.26 295.192 C 1971.51 295.314 1942.41 296.515 1928.81 295.045 C 1941.63 327.581 1969.52 334.241 2000.94 321.179 C 2005.4 319.325 2010.24 313.282 2015.07 312.118 C 2015.56 312 2018.21 314.226 2018.81 314.682 C 2024.75 322.079 2030.85 328.136 2037.47 334.867 C 2020.5 349.796 2009.19 357.873 1985.74 360.424 C 1962.38 362.966 1937.94 358.772 1919.21 344.036 C 1903.6 331.596 1893.48 313.54 1891.02 293.732 C 1888.4 272.553 1894.31 251.202 1907.46 234.39 C 1923.49 214.058 1940.18 209.225 1964.58 206.349 z M 1928.57 268.982 C 1942.96 268.917 1957.36 268.949 1971.75 269.078 C 1982.92 269.068 1995.94 269.371 2006.96 268.816 C 2001.92 247.986 1986.45 235.427 1964.39 238.196 C 1941.89 242.709 1938.69 249.392 1928.57 268.982 z"/>
<path transform="translate(0,0)" fill="rgb(0,0,0)" d="M 1412.58 156.497 C 1436.79 154.176 1465.49 157.012 1483.52 175.281 C 1500.53 190.843 1502.53 227.531 1490.72 247.017 C 1474.5 273.765 1441.36 301.564 1418.44 323.873 C 1441.76 323.036 1481.04 323.212 1504.27 323.931 C 1504.39 336.018 1504.43 346.976 1503.9 359.077 C 1493.9 357.958 1475.88 358.599 1465.22 358.651 C 1446.22 358.697 1427.21 358.578 1408.21 358.294 C 1392.44 358.557 1376.66 358.655 1360.89 358.589 C 1361.05 349.155 1361.28 339.721 1361.57 330.29 C 1364.78 325.505 1377.96 313.139 1382.72 308.501 L 1421.78 270.395 C 1436.78 255.741 1459.6 237.659 1457.29 214.4 C 1455.38 195.164 1434.22 189.153 1417.69 191.285 C 1402.06 193.3 1392.6 201.665 1383.11 213.478 C 1372.93 207.86 1363.2 200.937 1353.54 194.402 C 1368.92 170.127 1384.08 160.67 1412.58 156.497 z"/>
<path transform="translate(0,0)" fill="rgb(0,0,0)" d="M 1077.65 206.399 C 1103.35 201.932 1137.38 221.27 1140.75 248.44 C 1145.09 283.383 1143.89 323.382 1142.9 358.916 C 1134.11 358.058 1114.52 358.615 1104.84 358.512 C 1105.33 337.665 1108.45 273.445 1100.12 257.066 C 1096.63 250.217 1090.92 245.082 1083.56 242.757 C 1073.15 239.47 1060.79 241.473 1051.27 246.417 C 1050.32 247.246 1049.37 248.088 1048.44 248.943 C 1029.49 266.326 1034.61 293.754 1033.98 316.95 C 1033.6 330.892 1034.39 344.849 1033.8 358.857 C 1027.29 358.063 1003.14 358.351 995.236 358.233 C 996.859 311.95 995.329 255.254 995.227 208.225 C 1005.63 207.685 1020.68 208.284 1031.77 208.076 L 1031.8 226.052 C 1047.12 211.671 1057.51 208.088 1077.65 206.399 z"/>
<path transform="translate(0,0)" fill="rgb(0,0,0)" d="M 1794.14 171.167 C 1805.44 170.464 1822.31 170.936 1834.03 170.927 L 1834.15 209.941 C 1846.43 209.794 1859 209.928 1871.31 209.924 L 1871.01 242.085 C 1858.63 242.034 1846.26 242.111 1833.88 242.316 C 1834.42 258.684 1830.88 308.441 1838.11 319.915 C 1840.44 323.615 1843.95 326.317 1848.25 327.271 C 1856.33 329.064 1864.23 324.952 1870.83 320.781 C 1873.61 326.415 1878.1 340.112 1880.57 346.735 C 1885.29 358.083 1856.55 360.341 1849.61 360.75 C 1826.04 363.231 1800.54 349.968 1796.66 324.552 C 1792.85 299.566 1794.94 268.089 1794.26 242.189 L 1769.97 242.126 C 1770.69 232.03 1770.62 219.742 1770.11 209.722 L 1794.1 210.131 C 1794.63 198.917 1795.73 181.74 1794.14 171.167 z"/>
<path transform="translate(0,0)" fill="rgb(0,0,0)" d="M 920.661 208.392 C 927.495 209.107 947.81 208.748 955.581 208.784 C 955.257 214.177 955.644 219.896 955.513 225.33 C 954.462 269.169 957.395 314.7 954.987 358.373 C 942.281 358.613 929.574 358.756 916.866 358.805 C 917.403 325.936 916.261 246.268 916.854 209.597 C 916.86 209.19 919.798 208.612 920.661 208.392 z"/>
<path transform="translate(0,0)" fill="rgb(0,0,0)" d="M 1745.28 208.474 C 1746.15 208.133 1746.75 208.444 1747.67 208.709 C 1749.52 214.394 1748 345.209 1747.96 359.045 C 1736.75 357.835 1722.46 358.28 1710.97 358.33 C 1708.34 355.086 1710.02 226.567 1709.07 209.005 C 1720.77 208.359 1733.16 209.113 1745.28 208.474 z"/>
<path transform="translate(0,0)" fill="rgb(0,0,0)" d="M 1722.94 140.041 C 1731.49 137.941 1740.5 140.625 1746.5 147.057 C 1752.5 153.489 1754.55 162.663 1751.86 171.039 C 1749.18 179.415 1742.17 185.684 1733.55 187.425 C 1720.6 190.042 1707.93 181.821 1705.04 168.926 C 1702.16 156.031 1710.11 143.195 1722.94 140.041 z"/>
<path transform="translate(0,0)" fill="rgb(0,0,0)" d="M 929.711 140.184 C 938.261 137.957 947.345 140.556 953.423 146.968 C 959.501 153.379 961.611 162.589 958.931 171.008 C 956.25 179.426 949.203 185.721 940.537 187.438 C 927.674 189.986 915.115 181.848 912.187 169.066 C 909.258 156.284 917.021 143.489 929.711 140.184 z"/>
</svg>